<svg width="512" height="512" viewBox="0 0 512 512" fill="none" xmlns="http://www.w3.org/2000/svg">
  <rect width="512" height="512" rx="256" fill="#1A202C"/>
  <path d="M256 128C256 184.667 213.333 232 170.667 232C128 232 85.3333 184.667 85.3333 128C85.3333 71.3333 128 24 170.667 24C213.333 24 256 71.3333 256 128Z" fill="#00B6FF"/>
  <path d="M426.667 128C426.667 184.667 384 232 341.333 232C298.667 232 256 184.667 256 128C256 71.3333 298.667 24 341.333 24C384 24 426.667 71.3333 426.667 128Z" fill="#00B6FF"/>
  <path d="M341.333 488C298.667 488 256 440.667 256 384C256 327.333 298.667 280 341.333 280C384 280 426.667 327.333 426.667 384C426.667 440.667 384 488 341.333 488Z" fill="#00B6FF"/>
  <path d="M170.667 488C128 488 85.3333 440.667 85.3333 384C85.3333 327.333 128 280 170.667 280C213.333 280 256 327.333 256 384C256 440.667 213.333 488 170.667 488Z" fill="#00B6FF"/>
</svg> 